<svg xmlns="http:&#47;&#47;www.w3.org&#47;2000&#47;svg" viewBox="0 0 512 512" role="img" aria-label="Golazo">
  <defs>
    <linearGradient id="bg" x1="0" y1="0" x2="1" y2="1">
      <stop offset="0" stop-color="#0c1322"/>
      <stop offset="1" stop-color="#060a14"/>
    </linearGradient>
    <radialGradient id="glow" cx="0.5" cy="0.42" r="0.7">
      <stop offset="0" stop-color="#16f08b" stop-opacity="0.55"/>
      <stop offset="1" stop-color="#16f08b" stop-opacity="0"/>
    </radialGradient>
  </defs>
  <rect width="512" height="512" rx="116" fill="url(#bg)"/>
  <rect width="512" height="512" rx="116" fill="url(#glow)"/>
  <g stroke="#ffffff" stroke-opacity="0.06" stroke-width="3" fill="none">
    <path d="M0 150 H512 M0 256 H512 M0 362 H512"/>
  </g>
  <path d="M120 372 C 200 300, 250 300, 330 200" stroke="#16f08b" stroke-opacity="0.35" stroke-width="20" stroke-linecap="round" fill="none"/>
  <g transform="translate(330 196)">
    <circle r="96" fill="#ffffff"/>
    <g fill="#0a0f1c">
      <path d="M0 -52 l30 22 -11 36 -38 0 -11 -36 z"/>
      <path d="M0 -96 l16 26 -16 18 -16 -18 z"/>
      <path d="M86 -8 l-30 9 -22 -28 12 -25 z" transform="rotate(72)"/>
      <path d="M86 -8 l-30 9 -22 -28 12 -25 z" transform="rotate(144)"/>
      <path d="M86 -8 l-30 9 -22 -28 12 -25 z" transform="rotate(216)"/>
      <path d="M86 -8 l-30 9 -22 -28 12 -25 z" transform="rotate(288)"/>
    </g>
  </g>
</svg>
